<svg xmlns="http://www.w3.org/2000/svg" width="1920" height="1080" viewBox="0 0 1920 1080">
<defs>
  <radialGradient id="pit" cx="50%" cy="40%" r="75%">
    <stop offset="0" stop-color="#2e0909"/><stop offset="0.45" stop-color="#120505"/><stop offset="1" stop-color="#030202"/>
  </radialGradient>
  <radialGradient id="vignette" cx="50%" cy="45%" r="70%">
    <stop offset="0.55" stop-color="#000" stop-opacity="0"/><stop offset="1" stop-color="#000" stop-opacity="0.85"/>
  </radialGradient>
  <linearGradient id="hide" x1="0" y1="0" x2="0" y2="1">
    <stop offset="0" stop-color="#1e1414"/><stop offset="0.6" stop-color="#0e0909"/><stop offset="1" stop-color="#060404"/>
  </linearGradient>
  <linearGradient id="ironV" x1="0" y1="0" x2="1" y2="0">
    <stop offset="0" stop-color="#040303"/><stop offset="0.32" stop-color="#2a2421"/><stop offset="0.48" stop-color="#4c423c"/>
    <stop offset="0.66" stop-color="#1d1816"/><stop offset="1" stop-color="#020101"/>
  </linearGradient>
  <linearGradient id="ironH" x1="0" y1="0" x2="0" y2="1">
    <stop offset="0" stop-color="#040303"/><stop offset="0.35" stop-color="#2a2421"/><stop offset="0.5" stop-color="#4c423c"/>
    <stop offset="0.7" stop-color="#1d1816"/><stop offset="1" stop-color="#020101"/>
  </linearGradient>
  <linearGradient id="blood" x1="0" y1="0" x2="0" y2="1">
    <stop offset="0" stop-color="#3d0505"/><stop offset="0.6" stop-color="#7a0c10"/><stop offset="1" stop-color="#a3121b"/>
  </linearGradient>
  <linearGradient id="boneG" x1="0" y1="0" x2="0" y2="1">
    <stop offset="0" stop-color="#e6dcc8"/><stop offset="0.7" stop-color="#b3a68f"/><stop offset="1" stop-color="#6e5f4c"/>
  </linearGradient>
  <linearGradient id="textG" x1="0" y1="0" x2="0" y2="1">
    <stop offset="0" stop-color="#d8cdb8"/><stop offset="0.55" stop-color="#a39782"/><stop offset="1" stop-color="#5a1010"/>
  </linearGradient>
  <filter id="grime" x="0" y="0" width="100%" height="100%">
    <feTurbulence type="fractalNoise" baseFrequency="0.85" numOctaves="2" seed="3"/>
    <feColorMatrix values="0 0 0 0 0  0 0 0 0 0  0 0 0 0 0  0 0 0 -1.4 0.95"/>
  </filter>
  <filter id="stains" x="0" y="0" width="100%" height="100%">
    <feTurbulence type="fractalNoise" baseFrequency="0.0045" numOctaves="4" seed="21"/>
    <feColorMatrix values="0 0 0 0 0.24  0 0 0 0 0.02  0 0 0 0 0.02  -2.2 0 0 0 1.25"/>
  </filter>
  <filter id="rust" x="0" y="0" width="100%" height="100%">
    <feTurbulence type="fractalNoise" baseFrequency="0.02 0.004" numOctaves="4" seed="9" result="n"/>
    <feColorMatrix in="n" values="0 0 0 0 0.30  0 0 0 0 0.11  0 0 0 0 0.05  2.6 0 0 0 -1.35" result="r"/>
    <feComposite in="r" in2="SourceAlpha" operator="in" result="rr"/>
    <feMerge><feMergeNode in="SourceGraphic"/><feMergeNode in="rr"/></feMerge>
  </filter>
  <filter id="ragged" x="-10%" y="-10%" width="120%" height="120%">
    <feTurbulence type="fractalNoise" baseFrequency="0.06" numOctaves="2" seed="5" result="t"/>
    <feDisplacementMap in="SourceGraphic" in2="t" scale="7" xChannelSelector="R" yChannelSelector="G"/>
  </filter>
  <filter id="eyeglow" x="-150%" y="-150%" width="400%" height="400%">
    <feGaussianBlur stdDeviation="7" result="b"/>
    <feMerge><feMergeNode in="b"/><feMergeNode in="b"/><feMergeNode in="SourceGraphic"/></feMerge>
  </filter>
  <filter id="shadow" x="-10%" y="-30%" width="120%" height="160%">
    <feGaussianBlur stdDeviation="10"/>
  </filter>
</defs>
<rect width="1920" height="1080" fill="url(#pit)"/>
<rect width="1920" height="1080" filter="url(#stains)" opacity="0.7"/>
<ellipse cx="960.0" cy="560" rx="560" ry="300" fill="#5a0a0a" opacity="0.35" filter="url(#shadow)"/>
<g filter="url(#ragged)">
<polygon points="550.6,400.6 510.2,302.0 579.7,373.7 660.3,373.7 729.8,302.0 689.4,400.6 734.2,449.8 709.6,501.4 671.5,531.6 658.1,582.0 635.7,602.2 604.3,602.2 581.9,582.0 568.5,531.6 530.4,501.4 505.8,449.8" fill="url(#hide)" stroke="#2a0606" stroke-width="3.4"/>
<polygon points="579.7,579.8 660.3,579.8 653.6,640.2 620.0,651.4 586.4,640.2" fill="#1c0202"/>
<polygon points="590.9,587.6 649.1,587.6 640.2,632.4 599.8,632.4" fill="#4a0505"/>
<polygon points="583.0,638.0 657.0,638.0 642.4,671.6 597.6,671.6" fill="url(#hide)" stroke="#2a0606" stroke-width="3.4"/>
<polygon points="583.0,584.2 596.5,584.2 589.8,617.8" fill="url(#boneG)"/>
<polygon points="643.5,584.2 657.0,584.2 650.2,617.8" fill="url(#boneG)"/>
<polygon points="599.8,591.0 613.3,591.0 606.6,606.6" fill="url(#boneG)"/>
<polygon points="626.7,591.0 640.2,591.0 633.4,606.6" fill="url(#boneG)"/>
<polygon points="590.3,640.2 602.6,640.2 596.5,617.8" fill="url(#boneG)"/>
<polygon points="637.4,640.2 649.7,640.2 643.5,617.8" fill="url(#boneG)"/>
<polygon points="606.6,573.0 633.4,573.0 620.0,586.5" fill="#000"/>
<line x1="532.6" y1="423.0" x2="604.3" y2="458.8" stroke="#000" stroke-width="10.1" stroke-linecap="round"/>
<line x1="707.4" y1="423.0" x2="635.7" y2="458.8" stroke="#000" stroke-width="10.1" stroke-linecap="round"/>
</g>
<polygon points="546.1,447.6 599.8,474.5 558.4,483.4" fill="#c4161f" filter="url(#eyeglow)"/>
<circle cx="568.1" cy="472.2" r="3.9" fill="#ff6a4a"/>
<polygon points="693.9,447.6 640.2,474.5 681.6,483.4" fill="#c4161f" filter="url(#eyeglow)"/>
<circle cx="671.9" cy="472.2" r="3.9" fill="#ff6a4a"/>
<path d="M582.5,662.6 C582.5,713.0 583.7,743.3 579.3,763.4 A7.1,7.1 0 1,0 593.5,763.4 C589.1,743.3 590.3,713.0 590.3,662.6 Z" fill="url(#blood)"/><ellipse cx="583.9" cy="762.0" rx="1.8" ry="2.8" fill="#d4202c" opacity="0.5"/>
<path d="M621.7,662.6 C621.7,741.0 622.9,788.1 618.5,819.4 A7.1,7.1 0 1,0 632.7,819.4 C628.3,788.1 629.5,741.0 629.5,662.6 Z" fill="url(#blood)"/><ellipse cx="623.1" cy="818.0" rx="1.8" ry="2.8" fill="#d4202c" opacity="0.5"/>
<path d="M647.4,662.6 C647.4,696.2 648.6,716.4 644.3,729.8 A7.1,7.1 0 1,0 658.4,729.8 C654.1,716.4 655.3,696.2 655.3,662.6 Z" fill="url(#blood)"/><ellipse cx="648.9" cy="728.4" rx="1.8" ry="2.8" fill="#d4202c" opacity="0.5"/>
<path d="M604.9,662.6 C604.9,687.8 606.1,703.0 601.7,713.0 A7.1,7.1 0 1,0 615.9,713.0 C611.5,703.0 612.7,687.8 612.7,662.6 Z" fill="url(#blood)"/><ellipse cx="606.3" cy="711.6" rx="1.8" ry="2.8" fill="#d4202c" opacity="0.5"/>
<g filter="url(#ragged)">
<polygon points="1230.6,400.6 1190.2,302.0 1259.7,373.7 1340.3,373.7 1409.8,302.0 1369.4,400.6 1414.2,449.8 1389.6,501.4 1351.5,531.6 1338.1,582.0 1315.7,602.2 1284.3,602.2 1261.9,582.0 1248.5,531.6 1210.4,501.4 1185.8,449.8" fill="url(#hide)" stroke="#2a0606" stroke-width="3.4"/>
<polygon points="1259.7,579.8 1340.3,579.8 1333.6,640.2 1300.0,651.4 1266.4,640.2" fill="#1c0202"/>
<polygon points="1270.9,587.6 1329.1,587.6 1320.2,632.4 1279.8,632.4" fill="#4a0505"/>
<polygon points="1263.0,638.0 1337.0,638.0 1322.4,671.6 1277.6,671.6" fill="url(#hide)" stroke="#2a0606" stroke-width="3.4"/>
<polygon points="1263.0,584.2 1276.5,584.2 1269.8,617.8" fill="url(#boneG)"/>
<polygon points="1323.5,584.2 1337.0,584.2 1330.2,617.8" fill="url(#boneG)"/>
<polygon points="1279.8,591.0 1293.3,591.0 1286.6,606.6" fill="url(#boneG)"/>
<polygon points="1306.7,591.0 1320.2,591.0 1313.4,606.6" fill="url(#boneG)"/>
<polygon points="1270.3,640.2 1282.6,640.2 1276.5,617.8" fill="url(#boneG)"/>
<polygon points="1317.4,640.2 1329.7,640.2 1323.5,617.8" fill="url(#boneG)"/>
<polygon points="1286.6,573.0 1313.4,573.0 1300.0,586.5" fill="#000"/>
<line x1="1212.6" y1="423.0" x2="1284.3" y2="458.8" stroke="#000" stroke-width="10.1" stroke-linecap="round"/>
<line x1="1387.4" y1="423.0" x2="1315.7" y2="458.8" stroke="#000" stroke-width="10.1" stroke-linecap="round"/>
</g>
<polygon points="1226.1,447.6 1279.8,474.5 1238.4,483.4" fill="#c4161f" filter="url(#eyeglow)"/>
<circle cx="1248.1" cy="472.2" r="3.9" fill="#ff6a4a"/>
<polygon points="1373.9,447.6 1320.2,474.5 1361.6,483.4" fill="#c4161f" filter="url(#eyeglow)"/>
<circle cx="1351.9" cy="472.2" r="3.9" fill="#ff6a4a"/>
<path d="M1262.5,662.6 C1262.5,713.0 1263.7,743.3 1259.3,763.4 A7.1,7.1 0 1,0 1273.5,763.4 C1269.1,743.3 1270.3,713.0 1270.3,662.6 Z" fill="url(#blood)"/><ellipse cx="1263.9" cy="762.0" rx="1.8" ry="2.8" fill="#d4202c" opacity="0.5"/>
<path d="M1301.7,662.6 C1301.7,741.0 1302.9,788.1 1298.5,819.4 A7.1,7.1 0 1,0 1312.7,819.4 C1308.3,788.1 1309.5,741.0 1309.5,662.6 Z" fill="url(#blood)"/><ellipse cx="1303.1" cy="818.0" rx="1.8" ry="2.8" fill="#d4202c" opacity="0.5"/>
<path d="M1327.4,662.6 C1327.4,696.2 1328.6,716.4 1324.3,729.8 A7.1,7.1 0 1,0 1338.4,729.8 C1334.1,716.4 1335.3,696.2 1335.3,662.6 Z" fill="url(#blood)"/><ellipse cx="1328.9" cy="728.4" rx="1.8" ry="2.8" fill="#d4202c" opacity="0.5"/>
<path d="M1284.9,662.6 C1284.9,687.8 1286.1,703.0 1281.7,713.0 A7.1,7.1 0 1,0 1295.9,713.0 C1291.5,703.0 1292.7,687.8 1292.7,662.6 Z" fill="url(#blood)"/><ellipse cx="1286.3" cy="711.6" rx="1.8" ry="2.8" fill="#d4202c" opacity="0.5"/>
<g filter="url(#ragged)">
<polygon points="867.0,307.0 813.0,175.0 906.0,271.0 1014.0,271.0 1107.0,175.0 1053.0,307.0 1113.0,373.0 1080.0,442.0 1029.0,482.5 1011.0,550.0 981.0,577.0 939.0,577.0 909.0,550.0 891.0,482.5 840.0,442.0 807.0,373.0" fill="url(#hide)" stroke="#2a0606" stroke-width="4.5"/>
<polygon points="906.0,547.0 1014.0,547.0 1005.0,628.0 960.0,643.0 915.0,628.0" fill="#1c0202"/>
<polygon points="921.0,557.5 999.0,557.5 987.0,617.5 933.0,617.5" fill="#4a0505"/>
<polygon points="910.5,625.0 1009.5,625.0 990.0,670.0 930.0,670.0" fill="url(#hide)" stroke="#2a0606" stroke-width="4.5"/>
<polygon points="910.5,553.0 928.5,553.0 919.5,598.0" fill="url(#boneG)"/>
<polygon points="991.5,553.0 1009.5,553.0 1000.5,598.0" fill="url(#boneG)"/>
<polygon points="933.0,562.0 951.0,562.0 942.0,583.0" fill="url(#boneG)"/>
<polygon points="969.0,562.0 987.0,562.0 978.0,583.0" fill="url(#boneG)"/>
<polygon points="920.2,628.0 936.8,628.0 928.5,598.0" fill="url(#boneG)"/>
<polygon points="983.2,628.0 999.8,628.0 991.5,598.0" fill="url(#boneG)"/>
<polygon points="942.0,538.0 978.0,538.0 960.0,556.0" fill="#000"/>
<line x1="843.0" y1="337.0" x2="939.0" y2="385.0" stroke="#000" stroke-width="13.5" stroke-linecap="round"/>
<line x1="1077.0" y1="337.0" x2="981.0" y2="385.0" stroke="#000" stroke-width="13.5" stroke-linecap="round"/>
</g>
<polygon points="861.0,370.0 933.0,406.0 877.5,418.0" fill="#c4161f" filter="url(#eyeglow)"/>
<circle cx="890.5" cy="403.0" r="6.3" fill="#ff6a4a"/>
<polygon points="1059.0,370.0 987.0,406.0 1042.5,418.0" fill="#c4161f" filter="url(#eyeglow)"/>
<circle cx="1029.5" cy="403.0" r="6.3" fill="#ff6a4a"/>
<path d="M909.8,658.0 C909.8,725.5 911.3,766.0 905.5,793.0 A9.5,9.5 0 1,0 924.5,793.0 C918.7,766.0 920.2,725.5 920.2,658.0 Z" fill="url(#blood)"/><ellipse cx="911.7" cy="791.1" rx="2.4" ry="3.8" fill="#d4202c" opacity="0.5"/>
<path d="M962.2,658.0 C962.2,763.0 963.8,826.0 958.0,868.0 A9.5,9.5 0 1,0 977.0,868.0 C971.2,826.0 972.8,763.0 972.8,658.0 Z" fill="url(#blood)"/><ellipse cx="964.2" cy="866.1" rx="2.4" ry="3.8" fill="#d4202c" opacity="0.5"/>
<path d="M996.8,658.0 C996.8,703.0 998.3,730.0 992.5,748.0 A9.5,9.5 0 1,0 1011.5,748.0 C1005.7,730.0 1007.2,703.0 1007.2,658.0 Z" fill="url(#blood)"/><ellipse cx="998.7" cy="746.1" rx="2.4" ry="3.8" fill="#d4202c" opacity="0.5"/>
<path d="M939.8,658.0 C939.8,691.8 941.3,712.0 935.5,725.5 A9.5,9.5 0 1,0 954.5,725.5 C948.7,712.0 950.2,691.8 950.2,658.0 Z" fill="url(#blood)"/><ellipse cx="941.7" cy="723.6" rx="2.4" ry="3.8" fill="#d4202c" opacity="0.5"/>
<g filter="url(#rust)"><rect x="15" y="0" width="30" height="1080" fill="url(#ironV)"/><rect x="139" y="0" width="30" height="1080" fill="url(#ironV)"/><rect x="263" y="0" width="30" height="1080" fill="url(#ironV)"/><rect x="387" y="0" width="30" height="1080" fill="url(#ironV)"/><rect x="511" y="0" width="30" height="1080" fill="url(#ironV)"/><rect x="635" y="0" width="30" height="1080" fill="url(#ironV)"/><rect x="759" y="0" width="30" height="1080" fill="url(#ironV)"/><rect x="883" y="0" width="30" height="1080" fill="url(#ironV)"/><rect x="1007" y="0" width="30" height="1080" fill="url(#ironV)"/><rect x="1131" y="0" width="30" height="1080" fill="url(#ironV)"/><rect x="1255" y="0" width="30" height="1080" fill="url(#ironV)"/><rect x="1379" y="0" width="30" height="1080" fill="url(#ironV)"/><rect x="1503" y="0" width="30" height="1080" fill="url(#ironV)"/><rect x="1627" y="0" width="30" height="1080" fill="url(#ironV)"/><rect x="1751" y="0" width="30" height="1080" fill="url(#ironV)"/><rect x="1875" y="0" width="30" height="1080" fill="url(#ironV)"/><rect x="0" y="140" width="1920" height="36" fill="url(#ironH)"/><circle cx="30" cy="158" r="9" fill="#3a322d" stroke="#0a0808" stroke-width="3"/><circle cx="27" cy="155" r="3" fill="#6a5d54"/><circle cx="154" cy="158" r="9" fill="#3a322d" stroke="#0a0808" stroke-width="3"/><circle cx="151" cy="155" r="3" fill="#6a5d54"/><circle cx="278" cy="158" r="9" fill="#3a322d" stroke="#0a0808" stroke-width="3"/><circle cx="275" cy="155" r="3" fill="#6a5d54"/><circle cx="402" cy="158" r="9" fill="#3a322d" stroke="#0a0808" stroke-width="3"/><circle cx="399" cy="155" r="3" fill="#6a5d54"/><circle cx="526" cy="158" r="9" fill="#3a322d" stroke="#0a0808" stroke-width="3"/><circle cx="523" cy="155" r="3" fill="#6a5d54"/><circle cx="650" cy="158" r="9" fill="#3a322d" stroke="#0a0808" stroke-width="3"/><circle cx="647" cy="155" r="3" fill="#6a5d54"/><circle cx="774" cy="158" r="9" fill="#3a322d" stroke="#0a0808" stroke-width="3"/><circle cx="771" cy="155" r="3" fill="#6a5d54"/><circle cx="898" cy="158" r="9" fill="#3a322d" stroke="#0a0808" stroke-width="3"/><circle cx="895" cy="155" r="3" fill="#6a5d54"/><circle cx="1022" cy="158" r="9" fill="#3a322d" stroke="#0a0808" stroke-width="3"/><circle cx="1019" cy="155" r="3" fill="#6a5d54"/><circle cx="1146" cy="158" r="9" fill="#3a322d" stroke="#0a0808" stroke-width="3"/><circle cx="1143" cy="155" r="3" fill="#6a5d54"/><circle cx="1270" cy="158" r="9" fill="#3a322d" stroke="#0a0808" stroke-width="3"/><circle cx="1267" cy="155" r="3" fill="#6a5d54"/><circle cx="1394" cy="158" r="9" fill="#3a322d" stroke="#0a0808" stroke-width="3"/><circle cx="1391" cy="155" r="3" fill="#6a5d54"/><circle cx="1518" cy="158" r="9" fill="#3a322d" stroke="#0a0808" stroke-width="3"/><circle cx="1515" cy="155" r="3" fill="#6a5d54"/><circle cx="1642" cy="158" r="9" fill="#3a322d" stroke="#0a0808" stroke-width="3"/><circle cx="1639" cy="155" r="3" fill="#6a5d54"/><circle cx="1766" cy="158" r="9" fill="#3a322d" stroke="#0a0808" stroke-width="3"/><circle cx="1763" cy="155" r="3" fill="#6a5d54"/><circle cx="1890" cy="158" r="9" fill="#3a322d" stroke="#0a0808" stroke-width="3"/><circle cx="1887" cy="155" r="3" fill="#6a5d54"/><rect x="0" y="930" width="1920" height="36" fill="url(#ironH)"/><circle cx="30" cy="948" r="9" fill="#3a322d" stroke="#0a0808" stroke-width="3"/><circle cx="27" cy="945" r="3" fill="#6a5d54"/><circle cx="154" cy="948" r="9" fill="#3a322d" stroke="#0a0808" stroke-width="3"/><circle cx="151" cy="945" r="3" fill="#6a5d54"/><circle cx="278" cy="948" r="9" fill="#3a322d" stroke="#0a0808" stroke-width="3"/><circle cx="275" cy="945" r="3" fill="#6a5d54"/><circle cx="402" cy="948" r="9" fill="#3a322d" stroke="#0a0808" stroke-width="3"/><circle cx="399" cy="945" r="3" fill="#6a5d54"/><circle cx="526" cy="948" r="9" fill="#3a322d" stroke="#0a0808" stroke-width="3"/><circle cx="523" cy="945" r="3" fill="#6a5d54"/><circle cx="650" cy="948" r="9" fill="#3a322d" stroke="#0a0808" stroke-width="3"/><circle cx="647" cy="945" r="3" fill="#6a5d54"/><circle cx="774" cy="948" r="9" fill="#3a322d" stroke="#0a0808" stroke-width="3"/><circle cx="771" cy="945" r="3" fill="#6a5d54"/><circle cx="898" cy="948" r="9" fill="#3a322d" stroke="#0a0808" stroke-width="3"/><circle cx="895" cy="945" r="3" fill="#6a5d54"/><circle cx="1022" cy="948" r="9" fill="#3a322d" stroke="#0a0808" stroke-width="3"/><circle cx="1019" cy="945" r="3" fill="#6a5d54"/><circle cx="1146" cy="948" r="9" fill="#3a322d" stroke="#0a0808" stroke-width="3"/><circle cx="1143" cy="945" r="3" fill="#6a5d54"/><circle cx="1270" cy="948" r="9" fill="#3a322d" stroke="#0a0808" stroke-width="3"/><circle cx="1267" cy="945" r="3" fill="#6a5d54"/><circle cx="1394" cy="948" r="9" fill="#3a322d" stroke="#0a0808" stroke-width="3"/><circle cx="1391" cy="945" r="3" fill="#6a5d54"/><circle cx="1518" cy="948" r="9" fill="#3a322d" stroke="#0a0808" stroke-width="3"/><circle cx="1515" cy="945" r="3" fill="#6a5d54"/><circle cx="1642" cy="948" r="9" fill="#3a322d" stroke="#0a0808" stroke-width="3"/><circle cx="1639" cy="945" r="3" fill="#6a5d54"/><circle cx="1766" cy="948" r="9" fill="#3a322d" stroke="#0a0808" stroke-width="3"/><circle cx="1763" cy="945" r="3" fill="#6a5d54"/><circle cx="1890" cy="948" r="9" fill="#3a322d" stroke="#0a0808" stroke-width="3"/><circle cx="1887" cy="945" r="3" fill="#6a5d54"/></g>
<g filter="url(#rust)"><ellipse cx="214" cy="202.0" rx="15.0" ry="27.0" fill="none" stroke="url(#ironV)" stroke-width="8.0"/><rect x="210.0" y="216.0" width="8.0" height="54.0" rx="4.0" fill="url(#ironV)"/><ellipse cx="214" cy="282.0" rx="15.0" ry="27.0" fill="none" stroke="url(#ironV)" stroke-width="8.0"/><rect x="210.0" y="296.0" width="8.0" height="54.0" rx="4.0" fill="url(#ironV)"/><ellipse cx="214" cy="362.0" rx="15.0" ry="27.0" fill="none" stroke="url(#ironV)" stroke-width="8.0"/><rect x="210.0" y="376.0" width="8.0" height="54.0" rx="4.0" fill="url(#ironV)"/><ellipse cx="214" cy="442.0" rx="15.0" ry="27.0" fill="none" stroke="url(#ironV)" stroke-width="8.0"/><rect x="210.0" y="456.0" width="8.0" height="54.0" rx="4.0" fill="url(#ironV)"/><ellipse cx="214" cy="522.0" rx="15.0" ry="27.0" fill="none" stroke="url(#ironV)" stroke-width="8.0"/><rect x="210.0" y="536.0" width="8.0" height="54.0" rx="4.0" fill="url(#ironV)"/><ellipse cx="214" cy="602.0" rx="15.0" ry="27.0" fill="none" stroke="url(#ironV)" stroke-width="8.0"/><rect x="210.0" y="616.0" width="8.0" height="54.0" rx="4.0" fill="url(#ironV)"/><ellipse cx="214" cy="682.0" rx="15.0" ry="27.0" fill="none" stroke="url(#ironV)" stroke-width="8.0"/><rect x="210.0" y="696.0" width="8.0" height="54.0" rx="4.0" fill="url(#ironV)"/><path d="M214,746.0 q0,40 30,40 q30,0 30,-34" fill="none" stroke="url(#ironV)" stroke-width="11.0" stroke-linecap="round"/><path d="M270.5,746.0 C270.5,781.0 271.6,802.0 267.7,816.0 A6.3,6.3 0 1,0 280.3,816.0 C276.4,802.0 277.5,781.0 277.5,746.0 Z" fill="url(#blood)"/><ellipse cx="271.8" cy="814.7" rx="1.6" ry="2.5" fill="#d4202c" opacity="0.5"/></g>
<g filter="url(#rust)"><ellipse cx="1706" cy="199.4" rx="13.5" ry="24.3" fill="none" stroke="url(#ironV)" stroke-width="7.2"/><rect x="1702.4" y="212.0" width="7.2" height="48.6" rx="3.6" fill="url(#ironV)"/><ellipse cx="1706" cy="271.4" rx="13.5" ry="24.3" fill="none" stroke="url(#ironV)" stroke-width="7.2"/><rect x="1702.4" y="284.0" width="7.2" height="48.6" rx="3.6" fill="url(#ironV)"/><ellipse cx="1706" cy="343.4" rx="13.5" ry="24.3" fill="none" stroke="url(#ironV)" stroke-width="7.2"/><rect x="1702.4" y="356.0" width="7.2" height="48.6" rx="3.6" fill="url(#ironV)"/><ellipse cx="1706" cy="415.4" rx="13.5" ry="24.3" fill="none" stroke="url(#ironV)" stroke-width="7.2"/><rect x="1702.4" y="428.0" width="7.2" height="48.6" rx="3.6" fill="url(#ironV)"/><ellipse cx="1706" cy="487.4" rx="13.5" ry="24.3" fill="none" stroke="url(#ironV)" stroke-width="7.2"/><rect x="1702.4" y="500.0" width="7.2" height="48.6" rx="3.6" fill="url(#ironV)"/><ellipse cx="1706" cy="559.4" rx="13.5" ry="24.3" fill="none" stroke="url(#ironV)" stroke-width="7.2"/><path d="M1706,582.0 q0,40 30,40 q30,0 30,-34" fill="none" stroke="url(#ironV)" stroke-width="9.9" stroke-linecap="round"/><path d="M1762.5,582.0 C1762.5,617.0 1763.5,638.0 1759.7,652.0 A6.3,6.3 0 1,0 1772.3,652.0 C1768.5,638.0 1769.5,617.0 1769.5,582.0 Z" fill="url(#blood)"/><ellipse cx="1763.8" cy="650.7" rx="1.6" ry="2.5" fill="#d4202c" opacity="0.5"/></g>
<path d="M28.2,176.0 C28.2,326.0 29.7,416.0 24.1,476.0 A9.2,9.2 0 1,0 42.6,476.0 C36.9,416.0 38.5,326.0 38.5,176.0 Z" fill="url(#blood)"/><ellipse cx="30.1" cy="474.1" rx="2.3" ry="3.7" fill="#d4202c" opacity="0.5"/>
<path d="M145.6,176.0 C145.6,224.0 146.7,252.7 142.7,271.9 A6.4,6.4 0 1,0 155.6,271.9 C151.6,252.7 152.7,224.0 152.7,176.0 Z" fill="url(#blood)"/><ellipse cx="146.9" cy="270.6" rx="1.6" ry="2.6" fill="#d4202c" opacity="0.5"/>
<path d="M398.8,176.0 C398.8,236.6 399.9,273.0 395.8,297.3 A6.7,6.7 0 1,0 409.3,297.3 C405.2,273.0 406.3,236.6 406.3,176.0 Z" fill="url(#blood)"/><ellipse cx="400.2" cy="295.9" rx="1.7" ry="2.7" fill="#d4202c" opacity="0.5"/>
<path d="M529.0,176.0 C529.0,311.6 530.0,393.0 526.6,447.2 A5.5,5.5 0 1,0 537.5,447.2 C534.2,393.0 535.1,311.6 535.1,176.0 Z" fill="url(#blood)"/><ellipse cx="530.2" cy="446.1" rx="1.4" ry="2.2" fill="#d4202c" opacity="0.5"/>
<path d="M638.6,176.0 C638.6,361.5 640.1,472.9 634.6,547.1 A9.0,9.0 0 1,0 652.7,547.1 C647.2,472.9 648.7,361.5 648.7,176.0 Z" fill="url(#blood)"/><ellipse cx="640.5" cy="545.3" rx="2.3" ry="3.6" fill="#d4202c" opacity="0.5"/>
<path d="M1395.4,176.0 C1395.4,288.5 1396.9,356.0 1391.5,401.0 A8.8,8.8 0 1,0 1409.1,401.0 C1403.7,356.0 1405.2,288.5 1405.2,176.0 Z" fill="url(#blood)"/><ellipse cx="1397.2" cy="399.2" rx="2.2" ry="3.5" fill="#d4202c" opacity="0.5"/>
<path d="M1635.8,176.0 C1635.8,277.7 1636.9,338.7 1632.7,379.3 A6.8,6.8 0 1,0 1646.4,379.3 C1642.2,338.7 1643.3,277.7 1643.3,176.0 Z" fill="url(#blood)"/><ellipse cx="1637.2" cy="378.0" rx="1.7" ry="2.7" fill="#d4202c" opacity="0.5"/>
<path d="M1766.3,176.0 C1766.3,347.7 1767.9,450.7 1761.9,519.3 A9.8,9.8 0 1,0 1781.6,519.3 C1775.6,450.7 1777.2,347.7 1777.2,176.0 Z" fill="url(#blood)"/><ellipse cx="1768.3" cy="517.4" rx="2.5" ry="3.9" fill="#d4202c" opacity="0.5"/>
<ellipse cx="1064" cy="1015" rx="2.9" ry="2.6" fill="#5a0808" opacity="0.8"/>
<ellipse cx="851" cy="866" rx="3.4" ry="2.8" fill="#5a0808" opacity="0.8"/>
<ellipse cx="486" cy="939" rx="6.2" ry="4.7" fill="#5a0808" opacity="0.8"/>
<ellipse cx="251" cy="948" rx="3.6" ry="2.5" fill="#5a0808" opacity="0.8"/>
<ellipse cx="373" cy="915" rx="2.5" ry="2.2" fill="#5a0808" opacity="0.8"/>
<ellipse cx="1831" cy="921" rx="7.0" ry="6.8" fill="#5a0808" opacity="0.8"/>
<ellipse cx="83" cy="857" rx="7.6" ry="7.1" fill="#5a0808" opacity="0.8"/>
<ellipse cx="1227" cy="862" rx="4.9" ry="4.6" fill="#5a0808" opacity="0.8"/>
<ellipse cx="1701" cy="1029" rx="3.4" ry="3.2" fill="#5a0808" opacity="0.8"/>
<ellipse cx="720" cy="1006" rx="3.0" ry="2.9" fill="#5a0808" opacity="0.8"/>
<ellipse cx="1159" cy="1008" rx="3.5" ry="2.9" fill="#5a0808" opacity="0.8"/>
<ellipse cx="1115" cy="974" rx="4.5" ry="4.0" fill="#5a0808" opacity="0.8"/>
<ellipse cx="655" cy="897" rx="3.2" ry="2.8" fill="#5a0808" opacity="0.8"/>
<ellipse cx="216" cy="879" rx="2.5" ry="2.1" fill="#5a0808" opacity="0.8"/>
<ellipse cx="1068" cy="961" rx="2.3" ry="1.8" fill="#5a0808" opacity="0.8"/>
<ellipse cx="659" cy="844" rx="2.0" ry="2.0" fill="#5a0808" opacity="0.8"/>
<ellipse cx="233" cy="898" rx="3.9" ry="3.3" fill="#5a0808" opacity="0.8"/>
<ellipse cx="149" cy="942" rx="4.6" ry="4.3" fill="#5a0808" opacity="0.8"/>
<text x="960.0" y="842" text-anchor="middle" font-family="DejaVu Serif, serif" font-weight="700" font-size="112" letter-spacing="22" fill="#000" opacity="0.9" filter="url(#shadow)">CERBEROS</text>
<g filter="url(#ragged)"><text x="960.0" y="836" text-anchor="middle" font-family="DejaVu Serif, serif" font-weight="700" font-size="112" letter-spacing="22" fill="url(#textG)">CERBEROS</text></g>
<path d="M556.5,832.0 C556.5,867.0 557.5,888.0 553.7,902.0 A6.3,6.3 0 1,0 566.3,902.0 C562.5,888.0 563.5,867.0 563.5,832.0 Z" fill="url(#blood)"/><ellipse cx="557.8" cy="900.7" rx="1.6" ry="2.5" fill="#d4202c" opacity="0.5"/>
<path d="M664.5,832.0 C664.5,847.0 665.5,856.0 661.7,862.0 A6.3,6.3 0 1,0 674.3,862.0 C670.5,856.0 671.5,847.0 671.5,832.0 Z" fill="url(#blood)"/><ellipse cx="665.8" cy="860.7" rx="1.6" ry="2.5" fill="#d4202c" opacity="0.5"/>
<path d="M808.5,832.0 C808.5,887.0 809.5,920.0 805.7,942.0 A6.3,6.3 0 1,0 818.3,942.0 C814.5,920.0 815.5,887.0 815.5,832.0 Z" fill="url(#blood)"/><ellipse cx="809.8" cy="940.7" rx="1.6" ry="2.5" fill="#d4202c" opacity="0.5"/>
<path d="M901.5,832.0 C901.5,854.5 902.5,868.0 898.7,877.0 A6.3,6.3 0 1,0 911.3,877.0 C907.5,868.0 908.5,854.5 908.5,832.0 Z" fill="url(#blood)"/><ellipse cx="902.8" cy="875.7" rx="1.6" ry="2.5" fill="#d4202c" opacity="0.5"/>
<path d="M1056.5,832.0 C1056.5,874.5 1057.5,900.0 1053.7,917.0 A6.3,6.3 0 1,0 1066.3,917.0 C1062.5,900.0 1063.5,874.5 1063.5,832.0 Z" fill="url(#blood)"/><ellipse cx="1057.8" cy="915.7" rx="1.6" ry="2.5" fill="#d4202c" opacity="0.5"/>
<path d="M1186.5,832.0 C1186.5,852.0 1187.5,864.0 1183.7,872.0 A6.3,6.3 0 1,0 1196.3,872.0 C1192.5,864.0 1193.5,852.0 1193.5,832.0 Z" fill="url(#blood)"/><ellipse cx="1187.8" cy="870.7" rx="1.6" ry="2.5" fill="#d4202c" opacity="0.5"/>
<path d="M1308.5,832.0 C1308.5,892.0 1309.5,928.0 1305.7,952.0 A6.3,6.3 0 1,0 1318.3,952.0 C1314.5,928.0 1315.5,892.0 1315.5,832.0 Z" fill="url(#blood)"/><ellipse cx="1309.8" cy="950.7" rx="1.6" ry="2.5" fill="#d4202c" opacity="0.5"/>
<path d="M1388.5,832.0 C1388.5,859.5 1389.5,876.0 1385.7,887.0 A6.3,6.3 0 1,0 1398.3,887.0 C1394.5,876.0 1395.5,859.5 1395.5,832.0 Z" fill="url(#blood)"/><ellipse cx="1389.8" cy="885.7" rx="1.6" ry="2.5" fill="#d4202c" opacity="0.5"/>
<line x1="120" y1="990" x2="122" y2="1026" stroke="#8a7f70" stroke-width="3" opacity="0.6"/>
<line x1="130" y1="990" x2="132" y2="1026" stroke="#8a7f70" stroke-width="3" opacity="0.6"/>
<line x1="140" y1="990" x2="142" y2="1026" stroke="#8a7f70" stroke-width="3" opacity="0.6"/>
<line x1="150" y1="990" x2="152" y2="1026" stroke="#8a7f70" stroke-width="3" opacity="0.6"/>
<line x1="114" y1="1020" x2="158" y2="996" stroke="#8a7f70" stroke-width="3" opacity="0.6"/>
<line x1="182" y1="990" x2="184" y2="1026" stroke="#8a7f70" stroke-width="3" opacity="0.6"/>
<line x1="192" y1="990" x2="194" y2="1026" stroke="#8a7f70" stroke-width="3" opacity="0.6"/>
<line x1="202" y1="990" x2="204" y2="1026" stroke="#8a7f70" stroke-width="3" opacity="0.6"/>
<line x1="212" y1="990" x2="214" y2="1026" stroke="#8a7f70" stroke-width="3" opacity="0.6"/>
<line x1="176" y1="1020" x2="220" y2="996" stroke="#8a7f70" stroke-width="3" opacity="0.6"/>
<line x1="244" y1="990" x2="246" y2="1026" stroke="#8a7f70" stroke-width="3" opacity="0.6"/>
<line x1="254" y1="990" x2="256" y2="1026" stroke="#8a7f70" stroke-width="3" opacity="0.6"/>
<line x1="264" y1="990" x2="266" y2="1026" stroke="#8a7f70" stroke-width="3" opacity="0.6"/>
<line x1="274" y1="990" x2="276" y2="1026" stroke="#8a7f70" stroke-width="3" opacity="0.6"/>
<line x1="238" y1="1020" x2="282" y2="996" stroke="#8a7f70" stroke-width="3" opacity="0.6"/>
<line x1="306" y1="990" x2="308" y2="1026" stroke="#8a7f70" stroke-width="3" opacity="0.6"/>
<line x1="316" y1="990" x2="318" y2="1026" stroke="#8a7f70" stroke-width="3" opacity="0.6"/>
<line x1="326" y1="990" x2="328" y2="1026" stroke="#8a7f70" stroke-width="3" opacity="0.6"/>
<line x1="336" y1="990" x2="338" y2="1026" stroke="#8a7f70" stroke-width="3" opacity="0.6"/>
<line x1="300" y1="1020" x2="344" y2="996" stroke="#8a7f70" stroke-width="3" opacity="0.6"/>
<line x1="368" y1="990" x2="370" y2="1026" stroke="#8a7f70" stroke-width="3" opacity="0.6"/>
<line x1="378" y1="990" x2="380" y2="1026" stroke="#8a7f70" stroke-width="3" opacity="0.6"/>
<line x1="388" y1="990" x2="390" y2="1026" stroke="#8a7f70" stroke-width="3" opacity="0.6"/>
<line x1="398" y1="990" x2="400" y2="1026" stroke="#8a7f70" stroke-width="3" opacity="0.6"/>
<line x1="362" y1="1020" x2="406" y2="996" stroke="#8a7f70" stroke-width="3" opacity="0.6"/>
<line x1="430" y1="990" x2="432" y2="1026" stroke="#8a7f70" stroke-width="3" opacity="0.6"/>
<line x1="440" y1="990" x2="442" y2="1026" stroke="#8a7f70" stroke-width="3" opacity="0.6"/>
<line x1="450" y1="990" x2="452" y2="1026" stroke="#8a7f70" stroke-width="3" opacity="0.6"/>
<line x1="460" y1="990" x2="462" y2="1026" stroke="#8a7f70" stroke-width="3" opacity="0.6"/>
<line x1="424" y1="1020" x2="468" y2="996" stroke="#8a7f70" stroke-width="3" opacity="0.6"/>
<text x="1860" y="1040" text-anchor="end" font-family="DejaVu Sans Mono, monospace" font-size="17" letter-spacing="3" fill="#6f8a8f" opacity="0.55">NPU · CPU · REMOTE</text>
<text x="960.0" y="900" text-anchor="middle" font-family="DejaVu Sans Mono, monospace" font-size="19" letter-spacing="9" fill="#8a7f70" opacity="0.75">LOCAL AI · NO CLOUD</text>
<rect width="1920" height="1080" fill="url(#vignette)"/>
<rect width="1920" height="1080" filter="url(#grime)" opacity="0.45"/>
</svg>
