<svg xmlns="http://www.w3.org/2000/svg" width="128" height="128" viewBox="0 0 128 128">
<defs>
  <radialGradient id="sky" cx="50%" cy="38%" r="75%">
    <stop offset="0" stop-color="#4a0a0f"/><stop offset="0.45" stop-color="#1a0405"/><stop offset="1" stop-color="#050202"/>
  </radialGradient>
  <linearGradient id="hide" x1="0" y1="0" x2="0" y2="1">
    <stop offset="0" stop-color="#2a0b0d"/><stop offset="1" stop-color="#0b0606"/>
  </linearGradient>
  <linearGradient id="floor" x1="0" y1="0" x2="0" y2="1">
    <stop offset="0" stop-color="#e0102a" stop-opacity="0"/><stop offset="1" stop-color="#ff3b3b" stop-opacity="0.55"/>
  </linearGradient>
  <filter id="glow" x="-50%" y="-50%" width="200%" height="200%">
    <feGaussianBlur stdDeviation="4" result="b"/><feMerge><feMergeNode in="b"/><feMergeNode in="SourceGraphic"/></feMerge>
  </filter>
  <filter id="softglow" x="-20%" y="-20%" width="140%" height="140%">
    <feGaussianBlur stdDeviation="14"/>
  </filter>
  <pattern id="scan" width="4" height="4" patternUnits="userSpaceOnUse"><rect width="4" height="1" fill="#000" opacity="0.35"/></pattern>
</defs>
<rect x="4" y="4" width="120" height="120" rx="22" fill="#0b0606" stroke="#e0102a" stroke-width="4"/>
<g><polygon points="12.3,61.5 14.9,45.7 22.0,55.4 37.8,55.4 44.9,45.7 47.5,61.5 43.1,73.9 35.2,80.9 29.9,89.7 24.6,80.9 16.7,73.9" fill="url(#hide)" stroke="#ff3b3b" stroke-width="0.7" stroke-linejoin="miter"/><polygon points="19.0,65.6 26.7,68.1 21.1,69.8" fill="#ffd23f" filter="url(#glow)"/><polygon points="40.8,65.6 33.1,68.1 38.7,69.8" fill="#ffd23f" filter="url(#glow)"/><polygon points="80.5,61.5 83.1,45.7 90.2,55.4 106.0,55.4 113.1,45.7 115.7,61.5 111.3,73.9 103.4,80.9 98.1,89.7 92.8,80.9 84.9,73.9" fill="url(#hide)" stroke="#ff3b3b" stroke-width="0.7" stroke-linejoin="miter"/><polygon points="87.2,65.6 94.9,68.1 89.3,69.8" fill="#ffd23f" filter="url(#glow)"/><polygon points="109.0,65.6 101.3,68.1 106.9,69.8" fill="#ffd23f" filter="url(#glow)"/><polygon points="42.0,52.3 45.3,32.5 54.1,44.6 73.9,44.6 82.7,32.5 86.0,52.3 80.5,67.7 70.6,76.5 64.0,87.5 57.4,76.5 47.5,67.7" fill="url(#hide)" stroke="#ff3b3b" stroke-width="0.9" stroke-linejoin="miter"/><polygon points="50.4,57.4 60.0,60.4 53.0,62.6" fill="#ffd23f" filter="url(#glow)"/><polygon points="77.6,57.4 68.0,60.4 75.0,62.6" fill="#ffd23f" filter="url(#glow)"/></g>
</svg>
